<svg width="30" height="30" viewBox="0 0 30 30" fill="none" xmlns="http://www.w3.org/2000/svg">
<path fill-rule="evenodd" clip-rule="evenodd" d="M14.5193 4.69898C14.2107 4.39044 13.8444 4.14569 13.4413 3.97871C13.0382 3.81173 12.6061 3.72579 12.1698 3.72579C11.7335 3.72579 11.3014 3.81173 10.8983 3.97871C10.4951 4.14569 10.1288 4.39044 9.82031 4.69898C9.51177 5.00751 9.26703 5.3738 9.10005 5.77693C8.93307 6.18005 8.84713 6.61212 8.84713 7.04846C8.84713 7.48479 8.93307 7.91686 9.10005 8.31999C9.26703 8.72311 9.51177 9.0894 9.82031 9.39794L12.1698 7.04846L14.5193 4.69898ZM19.2182 9.39794C19.5268 9.08941 19.7715 8.72314 19.9385 8.32003C20.1054 7.9169 20.1914 7.48484 20.1914 7.0485C20.1914 6.61216 20.1054 6.18009 19.9385 5.77697C19.7715 5.37384 19.5267 5.00755 19.2182 4.69902C18.9097 4.39048 18.5434 4.14573 18.1402 3.97875C17.7371 3.81177 17.3051 3.72583 16.8687 3.72583C16.4324 3.72583 16.0003 3.81177 15.5972 3.97875C15.1941 4.14573 14.8278 4.39046 14.5193 4.69898C14.5193 4.69899 14.5192 4.69901 14.5192 4.69902L9.82031 9.39794L14.5193 14.0969L19.2182 9.39798C19.2182 9.39797 19.2182 9.39795 19.2182 9.39794Z" fill="#689E84"/>
<path fill-rule="evenodd" clip-rule="evenodd" d="M24.3396 14.5193C24.6481 14.8278 24.8929 15.1941 25.0599 15.5973C25.2268 16.0004 25.3128 16.4324 25.3128 16.8688C25.3128 17.3051 25.2268 17.7372 25.0599 18.1403C24.8929 18.5434 24.6481 18.9097 24.3396 19.2183C24.0311 19.5268 23.6648 19.7715 23.2616 19.9385C22.8585 20.1055 22.4265 20.1914 21.9901 20.1914C21.5538 20.1914 21.1217 20.1055 20.7186 19.9385C20.3155 19.7715 19.9492 19.5268 19.6406 19.2183L21.9901 16.8688L24.3396 14.5193ZM19.6406 9.82035C19.9492 9.51182 20.3154 9.26709 20.7185 9.10012C21.1217 8.93314 21.5537 8.84719 21.9901 8.84719C22.4264 8.84719 22.8585 8.93314 23.2616 9.10012C23.6647 9.2671 24.031 9.51184 24.3396 9.82038C24.6481 10.1289 24.8928 10.4952 25.0598 10.8983C25.2268 11.3015 25.3127 11.7335 25.3127 12.1699C25.3127 12.6062 25.2268 13.0383 25.0598 13.4414C24.8928 13.8445 24.6481 14.2108 24.3396 14.5193C24.3396 14.5193 24.3396 14.5193 24.3396 14.5193L19.6406 19.2183L14.9417 14.5193L19.6406 9.82038C19.6406 9.82037 19.6406 9.82036 19.6406 9.82035Z" fill="#689E84"/>
<path fill-rule="evenodd" clip-rule="evenodd" d="M4.69898 14.5193C4.39044 14.2107 4.14569 13.8444 3.97871 13.4413C3.81173 13.0382 3.72579 12.6061 3.72579 12.1698C3.72579 11.7335 3.81173 11.3014 3.97871 10.8983C4.14569 10.4951 4.39044 10.1288 4.69898 9.82031C5.00751 9.51177 5.3738 9.26703 5.77693 9.10005C6.18005 8.93307 6.61212 8.84713 7.04846 8.84713C7.48479 8.84713 7.91686 8.93307 8.31999 9.10005C8.72311 9.26703 9.0894 9.51177 9.39794 9.82031L7.04846 12.1698L4.69898 14.5193ZM9.39794 19.2182C9.08941 19.5268 8.72314 19.7715 8.32003 19.9385C7.9169 20.1054 7.48484 20.1914 7.0485 20.1914C6.61216 20.1914 6.18009 20.1054 5.77697 19.9385C5.37384 19.7715 5.00755 19.5267 4.69902 19.2182C4.39048 18.9097 4.14573 18.5434 3.97875 18.1402C3.81177 17.7371 3.72583 17.3051 3.72583 16.8687C3.72583 16.4324 3.81177 16.0003 3.97875 15.5972C4.14573 15.1941 4.39046 14.8278 4.69898 14.5193C4.69899 14.5193 4.69901 14.5192 4.69902 14.5192L9.39794 9.82031L14.0969 14.5193L9.39798 19.2182C9.39797 19.2182 9.39795 19.2182 9.39794 19.2182Z" fill="#689E84"/>
<path fill-rule="evenodd" clip-rule="evenodd" d="M14.5192 24.3396C14.8277 24.6481 15.194 24.8929 15.5971 25.0599C16.0003 25.2268 16.4323 25.3128 16.8687 25.3128C17.305 25.3128 17.7371 25.2268 18.1402 25.0599C18.5433 24.8929 18.9096 24.6481 19.2181 24.3396C19.5267 24.0311 19.7714 23.6648 19.9384 23.2616C20.1054 22.8585 20.1913 22.4265 20.1913 21.9901C20.1913 21.5538 20.1054 21.1217 19.9384 20.7186C19.7714 20.3155 19.5267 19.9492 19.2181 19.6406L16.8687 21.9901L14.5192 24.3396ZM9.82022 19.6406C9.5117 19.9492 9.26697 20.3154 9.09999 20.7185C8.93301 21.1217 8.84707 21.5537 8.84707 21.9901C8.84707 22.4264 8.93301 22.8585 9.09999 23.2616C9.26697 23.6647 9.51172 24.031 9.82026 24.3396C10.1288 24.6481 10.4951 24.8928 10.8982 25.0598C11.3013 25.2268 11.7334 25.3127 12.1697 25.3127C12.6061 25.3127 13.0381 25.2268 13.4413 25.0598C13.8444 24.8928 14.2107 24.6481 14.5192 24.3396C14.5192 24.3396 14.5192 24.3396 14.5192 24.3396L19.2181 19.6406L14.5192 14.9417L9.82026 19.6406C9.82025 19.6406 9.82024 19.6406 9.82022 19.6406Z" fill="#689E84"/>
</svg>
