<svg width="33" height="32" viewBox="0 0 33 32" fill="none" xmlns="http://www.w3.org/2000/svg">
<path fill-rule="evenodd" clip-rule="evenodd" d="M19.9583 15L20.6142 13.864C20.6499 13.8048 20.6844 13.745 20.7179 13.6844L20.78 13.5767H20.7758C21.1764 12.8122 21.403 11.9421 21.403 11.0191C21.403 7.97099 18.932 5.5 15.8839 5.5C12.8357 5.5 10.3647 7.97099 10.3647 11.0191C10.3647 11.9421 10.5913 12.8122 10.9919 13.5767H10.9875L11.0528 13.6898C11.0843 13.7467 11.1168 13.803 11.1503 13.8586L11.8092 15H7.20567C6.26176 15 5.44635 15.6599 5.2496 16.5831L3.54468 24.5831C3.27948 25.8276 4.22839 27 5.50076 27H26.5585C27.8308 27 28.7797 25.8276 28.5145 24.5831L26.8096 16.5831C26.6129 15.6599 25.7975 15 24.8535 15H19.9583ZM18.5411 10.8147C18.5411 9.34709 17.3513 8.15735 15.8837 8.15735C14.4161 8.15735 13.2264 9.34709 13.2264 10.8147C13.2264 12.2823 14.4161 13.472 15.8837 13.472C17.3513 13.472 18.5411 12.2823 18.5411 10.8147Z" fill="#19191B"/>
<path fill-rule="evenodd" clip-rule="evenodd" d="M15.8839 6C13.1119 6 10.8647 8.24713 10.8647 11.0191C10.8647 11.8594 11.0708 12.65 11.4348 13.3447L11.4727 13.4171L11.4902 13.4475C11.5189 13.4992 11.5484 13.5504 11.5788 13.601L11.5834 13.6086L15.4508 20.3073C15.6432 20.6407 16.1243 20.6407 16.3168 20.3073L20.1859 13.6058C20.2183 13.552 20.2498 13.4976 20.2803 13.4426L20.2848 13.4343L20.2963 13.4146L20.3329 13.3447C20.6969 12.65 20.903 11.8594 20.903 11.0191C20.903 8.24713 18.6558 6 15.8839 6ZM21.0449 14.1179L17.1828 20.8073C16.6055 21.8073 15.1621 21.8073 14.5847 20.8073L10.7194 14.1124C10.6845 14.0542 10.6506 13.9955 10.6176 13.9361L10.2258 13.0767C9.99212 12.4344 9.86475 11.7412 9.86475 11.0191C9.86475 7.69485 12.5596 5 15.8839 5C19.2081 5 21.903 7.69485 21.903 11.0191C21.903 11.7412 21.7756 12.4344 21.5419 13.0767L21.1532 13.9304C21.1182 13.9936 21.0821 14.0561 21.0449 14.1179Z" fill="white"/>
</svg>
