<svg width="33" height="56" viewBox="0 0 33 56" fill="none" xmlns="http://www.w3.org/2000/svg">
<path fill-rule="evenodd" clip-rule="evenodd" d="M20.899 18.25L21.5549 17.114C21.5905 17.0548 21.6251 16.995 21.6586 16.9344L21.7207 16.8267H21.7165C22.1171 16.0622 22.3436 15.1921 22.3436 14.2691C22.3436 11.221 19.8726 8.75 16.8245 8.75C13.7764 8.75 11.3054 11.221 11.3054 14.2691C11.3054 15.1921 11.532 16.0622 11.9325 16.8267H11.9282L11.9935 16.9398C12.025 16.9967 12.0575 17.053 12.0909 17.1086L12.7499 18.25H8.14635C7.20243 18.25 6.38702 18.9099 6.19028 19.8331L4.48536 27.8331C4.22015 29.0776 5.16906 30.25 6.44143 30.25H27.4991C28.7715 30.25 29.7204 29.0776 29.4552 27.8331L27.7503 19.8331C27.5536 18.9099 26.7381 18.25 25.7942 18.25H20.899ZM19.4818 14.0647C19.4818 12.5971 18.292 11.4074 16.8244 11.4074C15.3568 11.4074 14.1671 12.5971 14.1671 14.0647C14.1671 15.5323 15.3568 16.722 16.8244 16.722C18.292 16.722 19.4818 15.5323 19.4818 14.0647Z" fill="#E5E5E5"/>
<path fill-rule="evenodd" clip-rule="evenodd" d="M16.8245 9.25C14.0525 9.25 11.8054 11.4971 11.8054 14.2691C11.8054 15.1094 12.0115 15.9 12.3754 16.5947L12.4133 16.6671L12.4309 16.6975C12.4596 16.7492 12.4891 16.8004 12.5195 16.851L12.524 16.8586L16.3914 23.5573C16.5839 23.8907 17.065 23.8907 17.2575 23.5573L21.1266 16.8558C21.159 16.802 21.1905 16.7476 21.2209 16.6926L21.2255 16.6843L21.237 16.6646L21.2736 16.5947C21.6375 15.9 21.8436 15.1094 21.8436 14.2691C21.8436 11.4971 19.5965 9.25 16.8245 9.25ZM21.9856 17.3679L18.1235 24.0573C17.5461 25.0573 16.1028 25.0573 15.5254 24.0573L11.6601 17.3624C11.6252 17.3042 11.5913 17.2455 11.5583 17.1861L11.1665 16.3267C10.9328 15.6844 10.8054 14.9912 10.8054 14.2691C10.8054 10.9448 13.5003 8.25 16.8245 8.25C20.1488 8.25 22.8436 10.9448 22.8436 14.2691C22.8436 14.9912 22.7163 15.6844 22.4826 16.3267L22.0939 17.1804C22.0589 17.2436 22.0228 17.3061 21.9856 17.3679Z" fill="white"/>
<path d="M10.7477 37.4805C10.7535 39.25 12.0367 41.0488 13.5719 41.7109L13.0563 42.4375C11.8375 41.8867 10.7887 40.6855 10.3024 39.2441C9.81604 40.7734 8.76135 42.0977 7.5719 42.6953L7.02112 41.9688C8.51526 41.2539 9.81604 39.2852 9.8219 37.4805V36.1211H7.36096V35.3594H13.2321V36.1211H10.7477V37.4805ZM14.6852 44.6992V34.2812H15.611V44.6992H14.6852ZM25.8063 39.168V39.918H22.5836V42.6133H26.9313V43.3867H17.3922V42.6133H21.6813V39.918H18.611V35.1367H25.7008V35.8867H19.5367V39.168H25.8063Z" fill="#E5E5E5"/>
</svg>
