<svg width="32" height="32" viewBox="0 0 32 32" fill="none" xmlns="http://www.w3.org/2000/svg">
<path fill-rule="evenodd" clip-rule="evenodd" d="M15.5418 15.589C18.1897 15.589 20.3363 13.4425 20.3363 10.7945C20.3363 8.14658 18.1897 6 15.5418 6C12.8938 6 10.7473 8.14658 10.7473 10.7945C10.7473 13.4425 12.8938 15.589 15.5418 15.589ZM25.0787 25.1387C25.1362 25.688 24.6831 26.137 24.1308 26.137H15.5418L6.95274 26.137C6.40045 26.137 5.94733 25.688 6.00481 25.1387C6.23254 22.9624 7.19986 20.9179 8.7613 19.3565C10.5596 17.5582 12.9986 16.5479 15.5418 16.5479C18.0849 16.5479 20.5239 17.5582 22.3222 19.3565C23.8837 20.9179 24.851 22.9624 25.0787 25.1387Z" fill="#19191B"/>
</svg>
