<svg width="33" height="32" viewBox="0 0 33 32" fill="none" xmlns="http://www.w3.org/2000/svg">
<path fill-rule="evenodd" clip-rule="evenodd" d="M15.7918 15.589C18.4397 15.589 20.5863 13.4425 20.5863 10.7945C20.5863 8.14658 18.4397 6 15.7918 6C13.1438 6 10.9973 8.14658 10.9973 10.7945C10.9973 13.4425 13.1438 15.589 15.7918 15.589ZM25.3287 25.1387C25.3862 25.688 24.9331 26.137 24.3808 26.137H15.7918L7.20274 26.137C6.65045 26.137 6.19733 25.688 6.25481 25.1387C6.48254 22.9624 7.44986 20.9179 9.0113 19.3565C10.8096 17.5582 13.2486 16.5479 15.7918 16.5479C18.3349 16.5479 20.7739 17.5582 22.5722 19.3565C24.1337 20.9179 25.101 22.9624 25.3287 25.1387Z" fill="#E5E5E5"/>
</svg>
