<svg width="33" height="56" viewBox="0 0 33 56" fill="none" xmlns="http://www.w3.org/2000/svg">
<path fill-rule="evenodd" clip-rule="evenodd" d="M16.75 20.5205C19.398 20.5205 21.5445 18.374 21.5445 15.726C21.5445 13.0781 19.398 10.9315 16.75 10.9315C14.1021 10.9315 11.9555 13.0781 11.9555 15.726C11.9555 18.374 14.1021 20.5205 16.75 20.5205ZM26.287 30.0702C26.3445 30.6195 25.8913 31.0685 25.339 31.0685H16.75L8.16099 31.0685C7.6087 31.0685 7.15558 30.6195 7.21306 30.0702C7.44079 27.8939 8.40811 25.8494 9.96955 24.288C11.7678 22.4897 14.2068 21.4794 16.75 21.4794C19.2932 21.4794 21.7322 22.4897 23.5305 24.288C25.0919 25.8494 26.0592 27.8939 26.287 30.0702Z" fill="#19191B"/>
<path d="M8.76953 36.5841H10.0352L12.8945 43.5685H13L15.8594 36.5841H17.125V45.0685H16.1289V38.6583H16.0469L13.4102 45.0685H12.4727L9.83594 38.6583H9.76562V45.0685H8.76953V36.5841ZM18.2734 36.5841H19.4805L21.8125 40.5216H21.918L24.25 36.5841H25.4688L22.3984 41.588V45.0685H21.332V41.588L18.2734 36.5841Z" fill="#19191B"/>
</svg>
