<svg width="32" height="32" viewBox="0 0 32 32" fill="none" xmlns="http://www.w3.org/2000/svg">
<path fill-rule="evenodd" clip-rule="evenodd" d="M16 6C10.4772 6 6 10.4772 6 16V25.6078C6 25.8244 6.17557 26 6.39216 26H16C21.5228 26 26 21.5228 26 16C26 10.4772 21.5228 6 16 6ZM11.5 12.5C11.2239 12.5 11 12.7239 11 13C11 13.2761 11.2239 13.5 11.5 13.5H20.5C20.7761 13.5 21 13.2761 21 13C21 12.7239 20.7761 12.5 20.5 12.5H11.5ZM11.5 15.5C11.2239 15.5 11 15.7239 11 16C11 16.2761 11.2239 16.5 11.5 16.5H17C17.2761 16.5 17.5 16.2761 17.5 16C17.5 15.7239 17.2761 15.5 17 15.5H11.5ZM11.5 18.5C11.2239 18.5 11 18.7239 11 19C11 19.2761 11.2239 19.5 11.5 19.5H18.5C18.7761 19.5 19 19.2761 19 19C19 18.7239 18.7761 18.5 18.5 18.5H11.5Z" fill="#19191B"/>
</svg>
