<svg width="33" height="32" viewBox="0 0 33 32" fill="none" xmlns="http://www.w3.org/2000/svg">
<path fill-rule="evenodd" clip-rule="evenodd" d="M16.25 6C10.7272 6 6.25 10.4772 6.25 16V25.6078C6.25 25.8244 6.42557 26 6.64216 26H16.25C21.7728 26 26.25 21.5228 26.25 16C26.25 10.4772 21.7728 6 16.25 6ZM11.75 12.5C11.4739 12.5 11.25 12.7239 11.25 13C11.25 13.2761 11.4739 13.5 11.75 13.5H20.75C21.0261 13.5 21.25 13.2761 21.25 13C21.25 12.7239 21.0261 12.5 20.75 12.5H11.75ZM11.75 15.5C11.4739 15.5 11.25 15.7239 11.25 16C11.25 16.2761 11.4739 16.5 11.75 16.5H17.25C17.5261 16.5 17.75 16.2761 17.75 16C17.75 15.7239 17.5261 15.5 17.25 15.5H11.75ZM11.75 18.5C11.4739 18.5 11.25 18.7239 11.25 19C11.25 19.2761 11.4739 19.5 11.75 19.5H18.75C19.0261 19.5 19.25 19.2761 19.25 19C19.25 18.7239 19.0261 18.5 18.75 18.5H11.75Z" fill="#E5E5E5"/>
</svg>
