<svg width="33" height="56" viewBox="0 0 33 56" fill="none" xmlns="http://www.w3.org/2000/svg">
<path fill-rule="evenodd" clip-rule="evenodd" d="M16.75 10C11.2272 10 6.75 14.4772 6.75 20V29.6078C6.75 29.8244 6.92557 30 7.14216 30H16.75C22.2728 30 26.75 25.5228 26.75 20C26.75 14.4772 22.2728 10 16.75 10ZM12.25 16.5C11.9739 16.5 11.75 16.7239 11.75 17C11.75 17.2761 11.9739 17.5 12.25 17.5H21.25C21.5261 17.5 21.75 17.2761 21.75 17C21.75 16.7239 21.5261 16.5 21.25 16.5H12.25ZM12.25 19.5C11.9739 19.5 11.75 19.7239 11.75 20C11.75 20.2761 11.9739 20.5 12.25 20.5H17.75C18.0261 20.5 18.25 20.2761 18.25 20C18.25 19.7239 18.0261 19.5 17.75 19.5H12.25ZM12.25 22.5C11.9739 22.5 11.75 22.7239 11.75 23C11.75 23.2761 11.9739 23.5 12.25 23.5H19.25C19.5261 23.5 19.75 23.2761 19.75 23C19.75 22.7239 19.5261 22.5 19.25 22.5H12.25Z" fill="#E5E5E5"/>
<path d="M15.7422 35.7266V36.4883H7.29297V35.7266H11.0898V34.4727H11.9922V35.7266H15.7422ZM6.80078 42.043V41.2812H16.3398V42.043H11.9922V44.9727H11.0898V42.043H6.80078ZM8.14844 38.832C8.13672 37.707 9.41406 37.0859 11.5469 37.0859C13.6621 37.0859 14.9395 37.707 14.9453 38.832C14.9395 39.9336 13.6621 40.5547 11.5469 40.5664C9.41406 40.5547 8.13672 39.9336 8.14844 38.832ZM9.09766 38.832C9.08594 39.4766 9.99414 39.8574 11.5469 39.8516C13.082 39.8574 13.9844 39.4766 13.9961 38.832C13.9844 38.1758 13.082 37.7949 11.5469 37.7891C9.99414 37.7949 9.08594 38.1758 9.09766 38.832ZM25.7852 34.5312V44.9492H24.8594V34.5312H25.7852ZM17.3008 42.2422C20.1191 40.9062 21.5605 38.9082 21.7656 36.418H17.7812V35.668H22.7031C22.6914 38.6621 21.2969 41.3164 17.8047 42.9922L17.3008 42.2422Z" fill="#E5E5E5"/>
</svg>
