<svg width="33" height="56" viewBox="0 0 33 56" fill="none" xmlns="http://www.w3.org/2000/svg">
<path fill-rule="evenodd" clip-rule="evenodd" d="M6.12721 11.6076C5.53246 11.6514 5.08325 12.1505 5.08325 12.7469V27.1898C5.08325 27.8832 5.68404 28.4266 6.37582 28.3796C7.6249 28.2947 9.52696 28.2187 10.9166 28.4038C13.3212 28.724 16.7499 30.1667 16.7499 30.1667C16.7499 30.1667 20.1786 28.724 22.5833 28.4038C23.9729 28.2187 25.8749 28.2947 27.124 28.3796C27.8158 28.4266 28.4166 27.8832 28.4166 27.1898V12.7469C28.4166 12.1505 27.9674 11.6514 27.3726 11.6076C26.1396 11.5169 24.0687 11.4164 22.5833 11.6142C20.1786 11.9345 16.7499 13.3771 16.7499 13.3771C16.7499 13.3771 13.3212 11.9345 10.9166 11.6142C9.43117 11.4164 7.36024 11.5169 6.12721 11.6076ZM16.7499 14.75C16.888 14.75 16.9999 14.8619 16.9999 15V27.8333C16.9999 27.9714 16.888 28.0833 16.7499 28.0833C16.6118 28.0833 16.4999 27.9714 16.4999 27.8333V15C16.4999 14.8619 16.6118 14.75 16.7499 14.75ZM6.54253 15.0993C6.5297 14.9388 6.64947 14.7982 6.81004 14.7854L6.81683 14.7848L6.83568 14.7834L6.90739 14.7782C6.96959 14.7737 7.05968 14.7676 7.17191 14.7609C7.39628 14.7474 7.70962 14.7312 8.0659 14.7203C8.77413 14.6989 9.66805 14.6981 10.3698 14.7867C11.2214 14.8943 12.2641 15.1934 13.0823 15.4601C13.494 15.5942 13.8535 15.7218 14.1103 15.8158C14.2387 15.8629 14.3415 15.9016 14.4125 15.9286L14.4942 15.96L14.5156 15.9683L14.5212 15.9705L14.5234 15.9713C14.6733 16.0303 14.747 16.1996 14.688 16.3495C14.6291 16.4994 14.4595 16.573 14.3096 16.5141L14.3084 16.5136L14.3035 16.5117L14.2835 16.5039L14.2048 16.4737C14.136 16.4475 14.0355 16.4097 13.9096 16.3636C13.6579 16.2714 13.3051 16.1462 12.9016 16.0147C12.0895 15.75 11.0905 15.4658 10.2967 15.3655C9.64242 15.2828 8.78635 15.2821 8.08359 15.3034C7.73438 15.314 7.42698 15.3299 7.20698 15.3432C7.09703 15.3498 7.00903 15.3557 6.94869 15.36L6.87967 15.3651L6.86209 15.3664L6.85648 15.3669C6.69592 15.3797 6.55536 15.2599 6.54253 15.0993ZM6.81004 16.6116C6.64947 16.6244 6.5297 16.765 6.54253 16.9255C6.55536 17.0861 6.69592 17.2059 6.85648 17.193L6.86209 17.1926L6.87967 17.1913L6.94869 17.1862C7.00903 17.1819 7.09703 17.176 7.20698 17.1694C7.42698 17.1561 7.73438 17.1402 8.08359 17.1296C8.78635 17.1083 9.64242 17.109 10.2967 17.1917C11.0905 17.2919 12.0895 17.5762 12.9016 17.8409C13.3051 17.9724 13.6579 18.0975 13.9096 18.1898C14.0355 18.2359 14.136 18.2737 14.2048 18.2999L14.2835 18.3301L14.3035 18.3379L14.3084 18.3398L14.3096 18.3403C14.4595 18.3992 14.6291 18.3256 14.688 18.1757C14.747 18.0258 14.6733 17.8565 14.5234 17.7975L14.5212 17.7967L14.5156 17.7945L14.4942 17.7862L14.4125 17.7548C14.3415 17.7278 14.2387 17.6891 14.1103 17.642C13.8535 17.548 13.494 17.4204 13.0823 17.2863C12.2641 17.0196 11.2214 16.7205 10.3698 16.6129C9.66805 16.5243 8.77413 16.525 8.0659 16.5465C7.70962 16.5574 7.39628 16.5736 7.17191 16.5871C7.05968 16.5938 6.96959 16.5999 6.90739 16.6043L6.83568 16.6096L6.81683 16.611L6.81004 16.6116ZM6.54253 18.7517C6.5297 18.5912 6.64947 18.4506 6.81004 18.4378L6.81683 18.4372L6.83568 18.4358L6.90739 18.4305C6.96959 18.4261 7.05968 18.42 7.17191 18.4133C7.39628 18.3998 7.70962 18.3835 8.0659 18.3727C8.77413 18.3512 9.66805 18.3505 10.3698 18.4391C11.2214 18.5467 12.2641 18.8458 13.0823 19.1125C13.494 19.2466 13.8535 19.3742 14.1103 19.4682C14.2387 19.5153 14.3415 19.554 14.4125 19.581L14.4942 19.6124L14.5156 19.6207L14.5212 19.6229L14.5234 19.6237C14.6733 19.6827 14.747 19.852 14.688 20.0019C14.6291 20.1518 14.4595 20.2254 14.3096 20.1665L14.3084 20.166L14.3035 20.1641L14.2835 20.1563L14.2048 20.1261C14.136 20.0999 14.0355 20.0621 13.9096 20.016C13.6579 19.9237 13.3051 19.7986 12.9016 19.6671C12.0895 19.4024 11.0905 19.1181 10.2967 19.0179C9.64242 18.9352 8.78635 18.9345 8.08359 18.9558C7.73438 18.9664 7.42698 18.9823 7.20698 18.9955C7.09703 19.0022 7.00903 19.0081 6.94869 19.0124L6.87967 19.0174L6.86209 19.0188L6.85648 19.0192C6.69592 19.0321 6.55536 18.9123 6.54253 18.7517Z" fill="#E5E5E5"/>
<path fill-rule="evenodd" clip-rule="evenodd" d="M27.8332 12.7375C26.4698 12.6618 24.578 12.6101 23.1666 12.781C20.5215 13.1013 16.75 14.5439 16.75 14.5439L16.7499 14.5439L16.7499 14.5439C16.7377 14.5392 12.9741 13.1007 10.3333 12.781C8.92194 12.6101 7.03007 12.6618 5.6667 12.7375L5.66663 12.7469V27.1898C5.66663 27.5339 5.96985 27.8225 6.3363 27.7976C7.58654 27.7126 9.54042 27.632 10.9936 27.8256C12.2566 27.9938 13.7605 28.4508 14.9258 28.8541C15.5135 29.0575 16.0245 29.2506 16.3889 29.393C16.5337 29.4495 16.6555 29.4981 16.75 29.5363C16.8444 29.4981 16.9662 29.4495 17.111 29.393C17.4754 29.2506 17.9865 29.0575 18.5741 28.8541C19.7394 28.4508 21.2433 27.9938 22.5063 27.8256C23.9595 27.632 25.9134 27.7126 27.1636 27.7976C27.5301 27.8225 27.8333 27.5339 27.8333 27.1898V12.7469L27.8332 12.7375ZM29 12.8922V27.1898C29 28.2325 28.1016 29.0307 27.0845 28.9616C25.8366 28.8768 23.9863 28.8054 22.6603 28.982C21.5186 29.1341 20.1059 29.5585 18.9557 29.9566C18.3856 30.1539 17.8892 30.3415 17.5355 30.4796C17.3588 30.5487 17.2181 30.6052 17.1219 30.6444C17.0738 30.664 17.0369 30.6792 17.0123 30.6894L16.9846 30.7009L16.978 30.7036L16.9761 30.7044L16.75 30.7996L16.5235 30.7043L16.522 30.7036L16.5153 30.7009L16.4876 30.6894C16.463 30.6792 16.4261 30.664 16.378 30.6444C16.2819 30.6052 16.1411 30.5487 15.9644 30.4796C15.6108 30.3415 15.1144 30.1539 14.5443 29.9566C13.3941 29.5585 11.9813 29.1341 10.8396 28.982C9.51358 28.8054 7.66334 28.8768 6.41542 28.9616C5.39831 29.0307 4.49996 28.2325 4.49996 27.1898V12.8922C4.15102 13.0656 3.91663 13.4284 3.91663 13.8423V28.4679C3.91663 29.1038 4.4649 29.6037 5.09942 29.5616C6.45961 29.4715 8.71309 29.3743 10.3333 29.5705C12.9784 29.8908 16.75 31.3334 16.75 31.3334L16.75 31.3334C16.7598 31.3297 20.525 29.8904 23.1666 29.5705C24.7868 29.3743 27.0403 29.4715 28.4005 29.5616C29.035 29.6037 29.5833 29.1038 29.5833 28.4679V13.8423C29.5833 13.4284 29.3489 13.0656 29 12.8922ZM16.75 14.7308C16.8987 14.7308 17.0192 14.8514 17.0192 15.0001V27.8334C17.0192 27.9821 16.8987 28.1026 16.75 28.1026C16.6013 28.1026 16.4807 27.9821 16.4807 27.8334V15.0001C16.4807 14.8514 16.6013 14.7308 16.75 14.7308ZM6.54257 15.0994C6.52974 14.9388 6.64951 14.7983 6.81008 14.7854L6.81687 14.7849L6.83572 14.7834L6.90743 14.7782C6.96963 14.7738 7.05972 14.7677 7.17195 14.7609C7.39632 14.7474 7.70966 14.7312 8.06594 14.7204C8.77417 14.6989 9.66809 14.6982 10.3699 14.7868C11.2214 14.8944 12.2641 15.1934 13.0824 15.4601C13.494 15.5943 13.8536 15.7219 14.1103 15.8159C14.2387 15.8629 14.3416 15.9016 14.4125 15.9287L14.4942 15.96L14.5157 15.9684L14.5213 15.9706L14.5234 15.9714C14.6733 16.0304 14.747 16.1997 14.6881 16.3496C14.6291 16.4995 14.4595 16.5731 14.3096 16.5142L14.3085 16.5137L14.3035 16.5118L14.2835 16.504L14.2048 16.4738C14.136 16.4476 14.0355 16.4097 13.9097 16.3636C13.6579 16.2714 13.3051 16.1463 12.9016 16.0147C12.0896 15.7501 11.0906 15.4658 10.2968 15.3655C9.64246 15.2829 8.78639 15.2821 8.08363 15.3035C7.73442 15.3141 7.42702 15.33 7.20702 15.3432C7.09707 15.3498 7.00907 15.3558 6.94873 15.3601L6.87971 15.3651L6.86213 15.3665L6.85652 15.3669C6.69596 15.3797 6.5554 15.26 6.54257 15.0994ZM6.81008 16.6116C6.64951 16.6244 6.52974 16.765 6.54257 16.9256C6.5554 17.0862 6.69596 17.2059 6.85652 17.1931L6.86213 17.1927L6.87971 17.1913L6.94873 17.1863C7.00907 17.182 7.09707 17.176 7.20702 17.1694C7.42702 17.1562 7.73442 17.1403 8.08363 17.1297C8.78639 17.1083 9.64246 17.1091 10.2968 17.1917C11.0906 17.292 12.0896 17.5763 12.9016 17.8409C13.3051 17.9725 13.6579 18.0976 13.9097 18.1898C14.0355 18.2359 14.136 18.2738 14.2048 18.3L14.2835 18.3302L14.3035 18.338L14.3085 18.3399L14.3096 18.3403C14.4595 18.3993 14.6291 18.3257 14.6881 18.1758C14.747 18.0259 14.6733 17.8566 14.5234 17.7976L14.5213 17.7968L14.5157 17.7946L14.4942 17.7862L14.4125 17.7549C14.3416 17.7278 14.2387 17.6891 14.1103 17.6421C13.8536 17.548 13.494 17.4205 13.0824 17.2863C12.2641 17.0196 11.2214 16.7206 10.3699 16.613C9.66809 16.5243 8.77417 16.5251 8.06594 16.5466C7.70966 16.5574 7.39632 16.5736 7.17195 16.5871C7.05972 16.5939 6.96963 16.6 6.90743 16.6044L6.83572 16.6096L6.81687 16.6111L6.81008 16.6116ZM6.54257 18.7518C6.52974 18.5912 6.64951 18.4506 6.81008 18.4378L6.81687 18.4373L6.83572 18.4358L6.90743 18.4306C6.96963 18.4262 7.05972 18.4201 7.17195 18.4133C7.39632 18.3998 7.70966 18.3836 8.06594 18.3728C8.77417 18.3513 9.66809 18.3505 10.3699 18.4392C11.2214 18.5467 12.2641 18.8458 13.0824 19.1125C13.494 19.2467 13.8536 19.3742 14.1103 19.4683C14.2387 19.5153 14.3416 19.554 14.4125 19.5811L14.4942 19.6124L14.5157 19.6208L14.5213 19.623L14.5234 19.6238C14.6733 19.6827 14.747 19.8521 14.6881 20.002C14.6291 20.1519 14.4595 20.2255 14.3096 20.1665L14.3085 20.1661L14.3035 20.1642L14.2835 20.1564L14.2048 20.1262C14.136 20.0999 14.0355 20.0621 13.9097 20.016C13.6579 19.9238 13.3051 19.7987 12.9016 19.6671C12.0896 19.4025 11.0906 19.1182 10.2968 19.0179C9.64246 18.9353 8.78639 18.9345 8.08363 18.9559C7.73442 18.9664 7.42702 18.9824 7.20702 18.9956C7.09707 19.0022 7.00907 19.0082 6.94873 19.0125L6.87971 19.0175L6.86213 19.0189L6.85652 19.0193C6.69596 19.0321 6.5554 18.9123 6.54257 18.7518Z" fill="#E5E5E5"/>
<path d="M10.2051 34.5312V44.9727H9.2793V34.5312H10.2051ZM2.00195 38.9727C2.00781 36.7578 3.10938 35.3457 4.66211 35.3398C6.20898 35.3457 7.32812 36.7578 7.32227 38.9727C7.32812 41.1934 6.20898 42.5996 4.66211 42.5938C3.10938 42.5996 2.00781 41.1934 2.00195 38.9727ZM2.89258 38.9727C2.89258 40.666 3.61914 41.7793 4.66211 41.7734C5.71094 41.7793 6.43164 40.666 6.43164 38.9727C6.43164 37.2793 5.71094 36.166 4.66211 36.1602C3.61914 36.166 2.89258 37.2793 2.89258 38.9727ZM14.7754 35.3398C16.3105 35.3457 17.4004 36.7578 17.4121 38.9727C17.4004 41.1934 16.3105 42.5996 14.7754 42.5938C13.2285 42.5996 12.1445 41.1934 12.1504 38.9727C12.1445 36.7578 13.2285 35.3457 14.7754 35.3398ZM13.0176 38.9727C13.0234 40.666 13.7441 41.7793 14.7754 41.7734C15.8184 41.7793 16.5215 40.666 16.5215 38.9727C16.5215 37.2793 15.8184 36.166 14.7754 36.1602C13.7441 36.166 13.0234 37.2793 13.0176 38.9727ZM19.1348 44.9492V34.5312H20.0488V37.1562H21.7363V37.9414H20.0488V40.2617H21.7363V41.0352H20.0488V44.9492H19.1348ZM30.9707 34.5312V44.9492H30.0449V34.5312H30.9707ZM22.4863 42.2422C25.3047 40.9062 26.7461 38.9082 26.9512 36.418H22.9668V35.668H27.8887C27.877 38.6621 26.4824 41.3164 22.9902 42.9922L22.4863 42.2422Z" fill="#E5E5E5"/>
</svg>
