<svg width="33" height="56" viewBox="0 0 33 56" fill="none" xmlns="http://www.w3.org/2000/svg">
<path fill-rule="evenodd" clip-rule="evenodd" d="M19.4531 20.2889C18.4094 20.2889 17.4251 19.2105 16.9876 18.6553V11H21.3427L21.9587 18.604C21.5436 19.1408 20.5301 20.2889 19.4531 20.2889ZM12.1573 11H16.5123V18.6554C16.0748 19.2106 15.0906 20.2889 14.0469 20.2889C12.9699 20.2889 11.9563 19.1408 11.5413 18.604L12.1573 11ZM22.445 18.7194C22.9047 19.2892 23.8545 20.2889 24.8594 20.2889C25.7601 20.2889 26.3237 19.4859 26.6124 18.909C26.7937 18.5467 26.7823 18.1255 26.657 17.739L24.5816 11.3343C24.5169 11.1347 24.3353 11 24.1307 11H21.8196L22.445 18.7194ZM9.36931 11H11.6804L11.055 18.7194C10.5952 19.2893 9.6455 20.2889 8.64059 20.2889C7.73992 20.2889 7.17632 19.4859 6.88764 18.909C6.70633 18.5467 6.71771 18.1255 6.84298 17.739L8.91842 11.3343C8.98312 11.1347 9.16474 11 9.36931 11ZM8.83852 29.3333C8.28623 29.3333 7.83852 28.8856 7.83852 28.3333V20.5833C8.09584 20.7032 8.36614 20.7778 8.64055 20.7778C10.0461 20.7778 11.3437 19.0667 11.3437 19.0667C11.3437 19.0667 12.6413 20.7778 14.0468 20.7778C15.4524 20.7778 16.75 19.0667 16.75 19.0667C16.75 19.0667 18.0475 20.7778 19.4531 20.7778C20.8587 20.7778 22.1562 19.0667 22.1562 19.0667C22.1562 19.0667 23.4538 20.7778 24.8594 20.7778C25.1338 20.7778 25.4041 20.7032 25.6614 20.5833V28.3333C25.6614 28.8856 25.2137 29.3333 24.6614 29.3333H8.83852Z" fill="#19191B"/>
<path d="M14.8633 35.5312V39.7734H16.5508V40.5469H14.8633V45.9492H13.9492V35.5312H14.8633ZM6.87109 43.2422C9.56055 41.9062 11.0254 39.8965 11.2363 37.4297H7.35156V36.6562H12.168C12.1621 39.6035 10.7793 42.293 7.38672 43.9688L6.87109 43.2422ZM26.0898 35.5312V45.9492H25.2109V35.5312H26.0898ZM17.1836 43.0312C19.4453 41.6895 20.582 39.8086 20.7578 37.6289H17.6289V36.8672H21.6719C21.6719 37.8926 21.5078 38.8828 21.1504 39.8086H23.0195V35.8125H23.8984V45.4219H23.0195V40.5586H20.8105C20.1836 41.7715 19.1758 42.8438 17.7227 43.6992L17.1836 43.0312Z" fill="#19191B"/>
</svg>
