<svg width="68" height="68" viewBox="0 0 68 68" fill="none" xmlns="http://www.w3.org/2000/svg">
<g filter="url(#filter0_d_234_2301)">
<rect x="4" y="2" width="60" height="60" rx="30" fill="#689E84" shape-rendering="crispEdges"/>
<path fill-rule="evenodd" clip-rule="evenodd" d="M38.4531 29.875L39.191 28.597C39.2311 28.5304 39.27 28.4631 39.3076 28.3949L39.3776 28.2738H39.3728C39.8234 27.4137 40.0783 26.4349 40.0783 25.3965C40.0783 21.9674 37.2985 19.1875 33.8693 19.1875C30.4402 19.1875 27.6603 21.9674 27.6603 25.3965C27.6603 26.4349 27.9152 27.4137 28.3659 28.2738H28.361L28.4344 28.4011C28.4699 28.4651 28.5064 28.5284 28.5441 28.591L29.2854 29.875H24.1064C23.0445 29.875 22.1271 30.6174 21.9058 31.656L19.9878 40.656C19.6894 42.056 20.7569 43.375 22.1884 43.375H45.8783C47.3097 43.375 48.3772 42.056 48.0789 40.656L46.1608 31.656C45.9395 30.6174 45.0221 29.875 43.9602 29.875H38.4531ZM36.8587 25.1665C36.8587 23.5155 35.5203 22.177 33.8692 22.177C32.2181 22.177 30.8797 23.5155 30.8797 25.1665C30.8797 26.8176 32.2181 28.1561 33.8692 28.1561C35.5203 28.1561 36.8587 26.8176 36.8587 25.1665Z" fill="white"/>
<path fill-rule="evenodd" clip-rule="evenodd" d="M33.8693 19.75C30.7509 19.75 28.2228 22.278 28.2228 25.3965C28.2228 26.3418 28.4547 27.2313 28.8641 28.0128L28.9068 28.0942L28.9265 28.1284C28.9588 28.1866 28.9919 28.2442 29.0261 28.3012L29.0313 28.3097L33.3821 35.8457C33.5986 36.2207 34.1399 36.2207 34.3564 35.8457L38.7091 28.3066C38.7456 28.246 38.7811 28.1849 38.8153 28.1229L38.8204 28.1136L38.8334 28.0914L38.8745 28.0128C39.284 27.2313 39.5158 26.3418 39.5158 25.3965C39.5158 22.278 36.9878 19.75 33.8693 19.75ZM39.6756 28.8827L35.3307 36.4082C34.6812 37.5332 33.0574 37.5332 32.4078 36.4082L28.0593 28.8764C28.0201 28.811 27.9819 28.7449 27.9448 28.6781L27.504 27.7113C27.2411 26.9887 27.0978 26.2089 27.0978 25.3965C27.0978 21.6567 30.1295 18.625 33.8693 18.625C37.6091 18.625 40.6408 21.6567 40.6408 25.3965C40.6408 26.2089 40.4975 26.9887 40.2347 27.7113L39.7974 28.6717C39.758 28.7428 39.7174 28.8132 39.6756 28.8827Z" fill="#689E84"/>
</g>
<defs>
<filter id="filter0_d_234_2301" x="0" y="0" width="68" height="68" filterUnits="userSpaceOnUse" color-interpolation-filters="sRGB">
<feFlood flood-opacity="0" result="BackgroundImageFix"/>
<feColorMatrix in="SourceAlpha" type="matrix" values="0 0 0 0 0 0 0 0 0 0 0 0 0 0 0 0 0 0 127 0" result="hardAlpha"/>
<feOffset dy="2"/>
<feGaussianBlur stdDeviation="2"/>
<feComposite in2="hardAlpha" operator="out"/>
<feColorMatrix type="matrix" values="0 0 0 0 0 0 0 0 0 0 0 0 0 0 0 0 0 0 0.15 0"/>
<feBlend mode="normal" in2="BackgroundImageFix" result="effect1_dropShadow_234_2301"/>
<feBlend mode="normal" in="SourceGraphic" in2="effect1_dropShadow_234_2301" result="shape"/>
</filter>
</defs>
</svg>
