<svg width="14" height="14" viewBox="0 0 14 14" fill="none" xmlns="http://www.w3.org/2000/svg">
<path fill-rule="evenodd" clip-rule="evenodd" d="M8.62188 7.07333C7.99561 7.07333 7.40508 6.42629 7.14257 6.09319V1.5H9.75561L10.1252 6.06242C9.87618 6.38451 9.26806 7.07333 8.62188 7.07333ZM4.24437 1.5H6.8574V6.09322C6.59488 6.42633 6.00437 7.07333 5.37812 7.07333C4.73193 7.07333 4.12378 6.38446 3.87476 6.06239L4.24437 1.5ZM10.417 6.13162C10.6928 6.47354 11.2627 7.07333 11.8656 7.07333C12.4061 7.07333 12.7442 6.59155 12.9174 6.24543C13.0262 6.02805 13.0194 5.77532 12.9442 5.54337L11.6989 1.70057C11.6601 1.58079 11.5512 1.5 11.4284 1.5H10.0418L10.417 6.13162ZM2.57159 1.5H3.95822L3.58299 6.13166C3.30713 6.47358 2.7373 7.07333 2.13435 7.07333C1.59395 7.07333 1.25579 6.59155 1.08258 6.24543C0.973798 6.02805 0.980624 5.77532 1.05579 5.54337L2.30105 1.70057C2.33987 1.58079 2.44884 1.5 2.57159 1.5ZM2.65311 12.5C2.10083 12.5 1.65311 12.0523 1.65311 11.5V7.24996C1.80751 7.32194 1.96968 7.36667 2.13433 7.36667C2.97767 7.36667 3.75621 6.34 3.75621 6.34C3.75621 6.34 4.53475 7.36667 5.37809 7.36667C6.22144 7.36667 6.99998 6.34 6.99998 6.34C6.99998 6.34 7.77852 7.36667 8.62186 7.36667C9.4652 7.36667 10.2437 6.34 10.2437 6.34C10.2437 6.34 11.0223 7.36667 11.8656 7.36667C12.0303 7.36667 12.1924 7.32194 12.3468 7.24996V11.5C12.3468 12.0523 11.8991 12.5 11.3468 12.5H2.65311Z" fill="white"/>
</svg>
