<svg width="14" height="14" viewBox="0 0 14 14" fill="none" xmlns="http://www.w3.org/2000/svg">
<path d="M1.67265 4.64563H9.77543C9.77543 4.64563 10.5495 7.19425 10.4369 8.82282C10.2716 11.213 8.25723 13 5.90959 13H5.72404H5.53848C3.19085 13 1.17648 11.213 1.0112 8.82282C0.898579 7.19425 1.67265 4.64563 1.67265 4.64563Z" fill="white"/>
<path fill-rule="evenodd" clip-rule="evenodd" d="M4.07271 1.04558C3.78108 0.886393 3.61341 1.19539 3.61341 1.19539L3.61293 1.19632L3.61203 1.19804L3.60922 1.20351C3.60689 1.20804 3.6037 1.21433 3.59977 1.22221C3.5919 1.23797 3.58102 1.2602 3.56811 1.28766C3.54243 1.34234 3.50816 1.41905 3.4737 1.50763C3.40938 1.67295 3.32633 1.92395 3.32633 2.15617C3.32633 2.40574 3.42226 2.58832 3.48328 2.70446C3.48537 2.70846 3.48743 2.71237 3.48944 2.7162C3.55298 2.83747 3.57437 2.88768 3.57437 2.95785C3.57437 3.05395 3.5334 3.2038 3.4737 3.35724C3.44615 3.42804 3.41841 3.49019 3.39758 3.53452C3.38723 3.55657 3.37874 3.57388 3.37304 3.5853C3.37019 3.591 3.36805 3.59521 3.36674 3.59777L3.36542 3.60035C3.27951 3.76469 3.34011 3.96933 3.50108 4.05719C3.66215 4.14511 3.86255 4.08312 3.94869 3.91873L3.65705 3.75954C3.94869 3.91873 3.94869 3.91873 3.94869 3.91873L3.94923 3.91771L3.95012 3.91599L3.95294 3.91051C3.95526 3.90598 3.95845 3.8997 3.96239 3.89181C3.97025 3.87606 3.98114 3.85383 3.99404 3.82636C4.01972 3.77168 4.05399 3.69497 4.08845 3.60639C4.15278 3.44107 4.23582 3.19008 4.23582 2.95785C4.23582 2.70829 4.1399 2.52571 4.07888 2.40956C4.07678 2.40557 4.07472 2.40166 4.07271 2.39782C4.00917 2.27655 3.98778 2.22635 3.98778 2.15617C3.98778 2.06008 4.02875 1.91023 4.08845 1.75679C4.116 1.68599 4.14374 1.62384 4.16457 1.5795C4.17492 1.55746 4.18341 1.54014 4.18911 1.52873C4.19196 1.52302 4.1941 1.51882 4.19541 1.51626L4.19674 1.51367C4.19674 1.51367 4.36351 1.20431 4.07271 1.04558Z" fill="white"/>
<path fill-rule="evenodd" clip-rule="evenodd" d="M5.90029 1.04558C5.60865 0.886393 5.44099 1.19539 5.44099 1.19539L5.4405 1.19632L5.43961 1.19804L5.43679 1.20351C5.43447 1.20804 5.43128 1.21433 5.42734 1.22221C5.41948 1.23797 5.40859 1.2602 5.39569 1.28766C5.37001 1.34234 5.33574 1.41905 5.30127 1.50763C5.23695 1.67295 5.1539 1.92395 5.1539 2.15617C5.1539 2.40574 5.24983 2.58832 5.31085 2.70446C5.31295 2.70846 5.31501 2.71237 5.31701 2.7162C5.38056 2.83747 5.40195 2.88768 5.40195 2.95785C5.40195 3.05395 5.36097 3.2038 5.30127 3.35724C5.27373 3.42804 5.24598 3.49019 5.22516 3.53452C5.21481 3.55657 5.20631 3.57388 5.20061 3.5853C5.19777 3.591 5.19563 3.59521 5.19432 3.59777L5.19299 3.60035C5.10708 3.76469 5.16769 3.96933 5.32866 4.05719C5.48973 4.14511 5.69013 4.08312 5.77627 3.91873L5.48463 3.75954C5.77627 3.91873 5.77627 3.91873 5.77627 3.91873L5.7768 3.91771L5.7777 3.91599L5.78051 3.91051C5.78283 3.90598 5.78603 3.8997 5.78996 3.89181C5.79783 3.87606 5.80871 3.85383 5.82161 3.82636C5.8473 3.77168 5.88157 3.69497 5.91603 3.60639C5.98035 3.44107 6.0634 3.19008 6.0634 2.95785C6.0634 2.70829 5.96747 2.52571 5.90645 2.40956C5.90435 2.40557 5.9023 2.40166 5.90029 2.39782C5.83674 2.27655 5.81536 2.22635 5.81536 2.15617C5.81536 2.06008 5.85633 1.91023 5.91603 1.75679C5.94358 1.68599 5.97132 1.62384 5.99214 1.5795C6.0025 1.55746 6.01099 1.54014 6.01669 1.52873C6.01954 1.52302 6.02167 1.51882 6.02299 1.51626L6.02432 1.51367C6.02432 1.51367 6.19108 1.20431 5.90029 1.04558Z" fill="white"/>
<path fill-rule="evenodd" clip-rule="evenodd" d="M7.74645 1.04558C7.45481 0.886393 7.28715 1.19539 7.28715 1.19539L7.28666 1.19632L7.28577 1.19804L7.28295 1.20351C7.28063 1.20804 7.27744 1.21433 7.2735 1.22221C7.26564 1.23797 7.25475 1.2602 7.24185 1.28766C7.21617 1.34234 7.1819 1.41905 7.14744 1.50763C7.08311 1.67295 7.00006 1.92395 7.00006 2.15617C7.00006 2.40574 7.09599 2.58832 7.15701 2.70446C7.15911 2.70846 7.16117 2.71237 7.16318 2.7162C7.22672 2.83747 7.24811 2.88768 7.24811 2.95785C7.24811 3.05395 7.20714 3.2038 7.14744 3.35724C7.11989 3.42804 7.09215 3.49019 7.07132 3.53452C7.06097 3.55657 7.05248 3.57388 7.04678 3.5853C7.04393 3.591 7.04179 3.59521 7.04048 3.59777L7.03915 3.60035C6.95324 3.76469 7.01385 3.96933 7.17482 4.05719C7.33589 4.14511 7.53629 4.08312 7.62243 3.91873L7.33079 3.75954C7.62243 3.91873 7.62243 3.91873 7.62243 3.91873L7.62296 3.91771L7.62386 3.91599L7.62667 3.91051C7.629 3.90598 7.63219 3.8997 7.63612 3.89181C7.64399 3.87606 7.65487 3.85383 7.66777 3.82636C7.69346 3.77168 7.72773 3.69497 7.76219 3.60639C7.82651 3.44107 7.90956 3.19008 7.90956 2.95785C7.90956 2.70829 7.81363 2.52571 7.75261 2.40956C7.75052 2.40557 7.74846 2.40166 7.74645 2.39782C7.6829 2.27655 7.66152 2.22635 7.66152 2.15617C7.66152 2.06008 7.70249 1.91023 7.76219 1.75679C7.78974 1.68599 7.81748 1.62384 7.83831 1.5795C7.84866 1.55746 7.85715 1.54014 7.86285 1.52873C7.8657 1.52302 7.86783 1.51882 7.86915 1.51626L7.87048 1.51367C7.87048 1.51367 8.03724 1.20431 7.74645 1.04558Z" fill="white"/>
<path fill-rule="evenodd" clip-rule="evenodd" d="M5.51733 5.65833C4.39857 5.65833 3.49164 6.58398 3.49164 7.72582C3.49164 8.86767 4.39857 9.79332 5.51733 9.79332H10.9743C12.0931 9.79332 13 8.86767 13 7.72582C13 6.58398 12.0931 5.65833 10.9743 5.65833H5.51733ZM7.12962 6.5022C6.49033 6.5022 5.97208 7.03115 5.97208 7.68363C5.97208 8.33611 6.49033 8.86506 7.12962 8.86506H11.0157C11.6549 8.86506 12.1732 8.33611 12.1732 7.68363C12.1732 7.03115 11.6549 6.5022 11.0157 6.5022H7.12962Z" fill="white"/>
</svg>
