<svg width="24" height="24" viewBox="0 0 24 24" fill="none" xmlns="http://www.w3.org/2000/svg">
<path fill-rule="evenodd" clip-rule="evenodd" d="M15.2933 6.15469L14.5281 6.91988L17.2481 9.6398L18.0132 8.87461C18.7643 8.12352 18.7643 6.90577 18.0132 6.15469C17.2622 5.4036 16.0444 5.4036 15.2933 6.15469ZM18.735 9.59633C19.8846 8.44665 19.8846 6.58265 18.735 5.43297C17.5853 4.28328 15.7213 4.28328 14.5716 5.43297L13.8064 6.19816L13.6795 6.32511L13.6795 6.3251L12.9577 7.04683L4.75796 15.2466L4.49937 19.1254C4.47883 19.4335 4.73444 19.6891 5.04252 19.6686L8.92132 19.41L17.1211 11.2102L17.248 11.0832L17.2481 11.0832L17.9698 10.3615L18.735 9.59633ZM16.3994 10.4885L13.6795 7.76855L5.75086 15.6971L5.55658 18.6113L8.47078 18.4171L16.3994 10.4885Z" fill="#B0B0B0"/>
</svg>
