<svg width="24" height="24" viewBox="0 0 24 24" fill="none" xmlns="http://www.w3.org/2000/svg">
<path fill-rule="evenodd" clip-rule="evenodd" d="M6.85551 12.0898L6.86025 12.0977L6.86484 12.1056L12 21L17.1358 12.1045L17.1404 12.0967L17.1451 12.0889C17.1825 12.0266 17.2189 11.9637 17.2541 11.9L17.2585 11.8921L17.263 11.8842L17.2749 11.8636L17.3188 11.7798C17.7536 10.9499 18 10.0052 18 9C18 5.68629 15.3137 3 12 3C8.68629 3 6 5.68629 6 9C6 10.0052 6.24638 10.9499 6.6812 11.7798L6.72479 11.8631L6.73636 11.8831L6.74095 11.891L6.7454 11.8991C6.78096 11.9634 6.81767 12.027 6.85551 12.0898ZM18.0018 12.6045L17.6327 13.2439L12.866 21.5C12.4811 22.1667 11.5189 22.1667 11.134 21.5L6.36733 13.2439L5.99882 12.6056C5.95467 12.5323 5.91183 12.4581 5.87033 12.3831L5.7954 12.2533L5.79124 12.2461L5.78998 12.2439H5.7954L5.79414 12.2415L5.78998 12.2335C5.62487 11.9171 5.48323 11.5864 5.36739 11.2439C5.12916 10.5395 5 9.78483 5 9C5 5.13401 8.13401 2 12 2C15.866 2 19 5.13401 19 9C19 9.78483 18.8708 10.5395 18.6326 11.2439C18.5168 11.5864 18.3751 11.9171 18.21 12.2335L18.2059 12.2415L18.2046 12.2439H18.21L18.2088 12.2461L18.2046 12.2533L18.1291 12.3842C18.088 12.4585 18.0455 12.5319 18.0018 12.6045ZM14.0882 8.79411C14.0882 7.64081 13.1533 6.70587 12 6.70587C10.8467 6.70587 9.91172 7.64081 9.91172 8.79411C9.91172 9.94741 10.8467 10.8823 12 10.8823C13.1533 10.8823 14.0882 9.94741 14.0882 8.79411ZM15.0882 8.79411C15.0882 7.08852 13.7055 5.70587 12 5.70587C10.2944 5.70587 8.91172 7.08852 8.91172 8.79411C8.91172 10.4997 10.2944 11.8823 12 11.8823C13.7055 11.8823 15.0882 10.4997 15.0882 8.79411Z" fill="#B0B0B0"/>
</svg>
