<svg width="24" height="24" viewBox="0 0 24 24" fill="none" xmlns="http://www.w3.org/2000/svg">
<path fill-rule="evenodd" clip-rule="evenodd" d="M9.6044 13.8892C5.93455 10.3906 4.92841 7.26363 4.65127 5.83533C4.5705 5.41907 4.7222 4.97929 5.05339 4.60614L5.91489 3.63553C6.30175 3.19968 6.8726 3.06374 7.50833 3.18686C8.1536 3.31184 8.81102 3.70011 9.2479 4.232C9.7533 4.84734 10.088 5.59875 10.1495 6.3027C10.2101 6.99734 10.0067 7.62018 9.4706 8.0674L9.16958 8.3185L9.14764 8.496L9.63147 8.55033C9.14765 8.496 9.14764 8.496 9.14764 8.496L9.14749 8.4973L9.14731 8.49875L9.14693 8.5021L9.14603 8.51058C9.14538 8.51701 9.14465 8.525 9.14392 8.53452C9.14245 8.55356 9.14096 8.5787 9.14008 8.60963C9.13832 8.6715 9.13898 8.75656 9.14709 8.86233C9.16332 9.07404 9.20932 9.3681 9.32482 9.72437C9.55673 10.4397 10.0638 11.3903 11.1447 12.4208C12.2312 13.4565 13.2768 13.9388 14.0699 14.1581C14.4648 14.2672 14.7937 14.3102 15.0297 14.3254C15.1476 14.3329 15.2424 14.3335 15.3108 14.3319C15.3449 14.3311 15.3725 14.3297 15.393 14.3284L15.4186 14.3266L15.4273 14.3258L15.4307 14.3255L15.4321 14.3253C15.4321 14.3253 15.4333 14.3252 15.3818 13.8634L15.4333 14.3252L15.6326 14.305L15.8214 14.0843C16.26 13.5715 16.8919 13.3664 17.6047 13.4105C18.3273 13.4552 19.1039 13.7584 19.7344 14.2291C20.2923 14.6456 20.6996 15.2723 20.8307 15.8874C20.9599 16.4935 20.8173 17.0377 20.3601 17.4065L19.3419 18.2278C18.9505 18.5435 18.4892 18.6882 18.0526 18.6112C16.5543 18.3469 13.2743 17.3878 9.6044 13.8892ZM15.1518 13.4016C15.8254 12.6806 16.7521 12.4269 17.6677 12.4836C18.6128 12.542 19.5726 12.9285 20.3351 13.4977C21.068 14.0448 21.6064 14.8621 21.7855 15.7025C21.9666 16.552 21.7838 17.4748 20.9894 18.1156L19.9713 18.9369C19.4119 19.3882 18.6635 19.6635 17.8753 19.5245C16.2025 19.2295 12.7379 18.1901 8.91544 14.546C5.09296 10.9019 4.00263 7.59908 3.69318 6.00429C3.54739 5.25291 3.83621 4.53949 4.3096 4.00615L5.17109 3.03554C5.84322 2.27828 6.81124 2.10401 7.70232 2.27659C8.58386 2.44733 9.44119 2.96069 10.015 3.65935C10.6186 4.3942 11.0408 5.31379 11.1204 6.22561C11.2008 7.14507 10.9308 8.08102 10.1167 8.76272C10.1173 8.77291 10.118 8.78355 10.1188 8.79463C10.1301 8.94117 10.1635 9.16556 10.2557 9.45009C10.4393 10.0164 10.8611 10.8368 11.8337 11.764C12.8007 12.6859 13.7014 13.0891 14.3412 13.2659C14.6627 13.3548 14.922 13.3875 15.095 13.3986C15.1151 13.3999 15.1341 13.4009 15.1518 13.4016Z" fill="#B0B0B0"/>
</svg>
