<svg width="14" height="14" viewBox="0 0 14 14" fill="none" xmlns="http://www.w3.org/2000/svg">
<path fill-rule="evenodd" clip-rule="evenodd" d="M5.58417 7.08259C6.59353 6.86208 7.36075 5.76124 7.36075 4.4364C7.36075 2.95274 6.39855 1.75 5.21162 1.75C4.0247 1.75 3.0625 2.95274 3.0625 4.4364C3.0625 5.76124 3.82972 6.86208 4.83907 7.08259L4.56716 11.8911C4.55904 12.0871 4.72996 12.25 4.94366 12.25H5.47959C5.69329 12.25 5.86421 12.0871 5.85608 11.8911L5.58417 7.08259Z" fill="#B0B0B0"/>
<path d="M8.53125 1.75H8.96875L9.17839 11.8126C9.18339 12.0527 8.99014 12.25 8.75 12.25C8.50986 12.25 8.31661 12.0527 8.32161 11.8126L8.53125 1.75Z" fill="#B0B0B0"/>
<path d="M9.84375 1.75H10.2812L10.4909 11.8126C10.4959 12.0527 10.3026 12.25 10.0625 12.25C9.82236 12.25 9.62911 12.0527 9.63411 11.8126L9.84375 1.75Z" fill="#B0B0B0"/>
</svg>
