<svg width="16" height="16" viewBox="0 0 16 16" fill="none" xmlns="http://www.w3.org/2000/svg">
<path fill-rule="evenodd" clip-rule="evenodd" d="M6.38191 8.09439C7.53546 7.84238 8.41228 6.58427 8.41228 5.07018C8.41228 3.37456 7.31263 2 5.95614 2C4.59965 2 3.5 3.37456 3.5 5.07018C3.5 6.58427 4.37682 7.84238 5.53037 8.09439L5.21962 13.5899C5.21033 13.8138 5.40567 14 5.64989 14H6.26239C6.50661 14 6.70195 13.8138 6.69266 13.5899L6.38191 8.09439Z" fill="white"/>
<path d="M9.75 2H10.25L10.4896 13.5001C10.4953 13.7745 10.2744 14 10 14C9.72556 14 9.5047 13.7745 9.51041 13.5001L9.75 2Z" fill="white"/>
<path d="M11.25 2H11.75L11.9896 13.5001C11.9953 13.7745 11.7744 14 11.5 14C11.2256 14 11.0047 13.7745 11.0104 13.5001L11.25 2Z" fill="white"/>
</svg>
