<svg width="14" height="14" viewBox="0 0 14 14" fill="none" xmlns="http://www.w3.org/2000/svg">
<path d="M9.06075 1H9.55346L9.79277 12.6C9.79665 12.82 9.57807 13 9.3071 13L-nan -nanCnan nan nan nan nan nanLnan nanCnan nan nan nan -nan -nanL9.3071 13C9.03613 13 8.81756 12.82 8.82143 12.6L9.06075 1Z" fill="#B0B0B0"/>
<path d="M10.5179 1H11.0106L11.25 12.6C11.2538 12.82 11.0353 13 10.7643 13L-nan -nanCnan nan nan nan nan nanLnan nanCnan nan nan nan -nan -nanL10.7643 13C10.4933 13 10.2747 12.82 10.2786 12.6L10.5179 1Z" fill="#B0B0B0"/>
<path fill-rule="evenodd" clip-rule="evenodd" d="M5.59961 7.09439C6.74023 6.84238 7.60722 5.58427 7.60722 4.07018C7.60722 2.37456 6.5199 1 5.17861 1C3.83733 1 2.75 2.37456 2.75 4.07018C2.75 5.58427 3.61699 6.84238 4.75761 7.09439L4.45034 12.5899C4.44116 12.8138 4.63431 13 4.8758 13H5.48143C5.72292 13 5.91606 12.8138 5.90688 12.5899L5.59961 7.09439Z" fill="#B0B0B0"/>
</svg>
